
<svg xmlns="http://www.w3.org/2000/svg" width="116" height="32" viewBox="0 0 116 32">
    <g data-name="그룹 50" style="clip-path:url(#gmz64e1sca)">
        <path data-name="패스 9" d="M94.48 24.566h4.357v5.81a6.736 6.736 0 0 1-1.442.176 54.24 54.24 0 0 1-1.684.028 7.853 7.853 0 0 1-2.957-.537 6.472 6.472 0 0 1-2.274-1.526 6.792 6.792 0 0 1-1.48-2.31 8.134 8.134 0 0 1-.528-2.975 7.266 7.266 0 0 1 7.373-7.348 9.66 9.66 0 0 1 2.827.442 20.472 20.472 0 0 1 2.975 1.192l.1.049.262-1.983a2.164 2.164 0 0 0-.143-.925 1.363 1.363 0 0 0-.754-.712h-.007a17.592 17.592 0 0 0-2.615-.7 15.259 15.259 0 0 0-2.783-.252 11.732 11.732 0 0 0-4.249.757 10.089 10.089 0 0 0-3.369 2.1 9.648 9.648 0 0 0-2.249 3.228 10.373 10.373 0 0 0-.815 4.151 11.1 11.1 0 0 0 .76 4.177 9.19 9.19 0 0 0 2.171 3.229 9.9 9.9 0 0 0 3.384 2.091 12.384 12.384 0 0 0 4.372.742 22.938 22.938 0 0 0 3.85-.294 17.615 17.615 0 0 0 2.671-.629l.055-.02V21.619H94.48z" transform="translate(-48.085 -7.275)" style="fill:#222"/>
        <path data-name="패스 10" d="M170.79 10.8a2.821 2.821 0 0 0-1-.226 4.2 4.2 0 0 0-.992.056l-.066.012v19.77h3.176V12.4a1.575 1.575 0 0 0-.32-1.024 1.986 1.986 0 0 0-.8-.584" transform="translate(-95.425 -5.901)" style="fill:#222"/>
        <path data-name="패스 11" d="M195.591 25.89a1.574 1.574 0 0 0-.32-1.024 2.047 2.047 0 0 0-.772-.586 3.114 3.114 0 0 0-1.013-.225 5.981 5.981 0 0 0-1 .028l-.072.009v6.539a6.5 6.5 0 0 1-.987 3.722 3.326 3.326 0 0 1-2.933 1.432 2.7 2.7 0 0 1-2.319-1.146 5.711 5.711 0 0 1-.834-3.351v-5.4a1.572 1.572 0 0 0-.32-1.024 2.047 2.047 0 0 0-.772-.586 3.113 3.113 0 0 0-1.013-.225 5.981 5.981 0 0 0-1 .028l-.072.009v8.24a6.112 6.112 0 0 0 1.654 4.524 6 6 0 0 0 4.4 1.641 7.078 7.078 0 0 0 2.371-.429 5.749 5.749 0 0 0 1.933-1.137v.006a1.118 1.118 0 0 0 .623 1.129 3.256 3.256 0 0 0 1.349.267 13.809 13.809 0 0 0 1.096-.072V36.245z" transform="translate(-103.022 -13.527)" style="fill:#222"/>
        <path data-name="패스 12" d="M238.888 25.121a5.147 5.147 0 0 0-6.112-1.076 4.8 4.8 0 0 0-1.951 1.783 4.815 4.815 0 0 0-1.786-1.727 4.649 4.649 0 0 0-2.217-.613 6.894 6.894 0 0 0-2.33.361 4.168 4.168 0 0 0-1.68 1.181 1.163 1.163 0 0 0-.288-.694 1.659 1.659 0 0 0-.748-.461 3.627 3.627 0 0 0-.981-.155 7.57 7.57 0 0 0-1.025.042l-.072.008V37.9h3.176v-6.931a7.9 7.9 0 0 1 .19-1.723 5.086 5.086 0 0 1 .593-1.524 3.4 3.4 0 0 1 1.018-1.084 2.608 2.608 0 0 1 1.489-.411 1.772 1.772 0 0 1 1.063.313 2.185 2.185 0 0 1 .675.8 3.5 3.5 0 0 1 .375 1.085 6.83 6.83 0 0 1 .109 1.178v8.3h3.176v-6.934a10.152 10.152 0 0 1 .149-1.727 5.271 5.271 0 0 1 .5-1.525 3.051 3.051 0 0 1 .921-1.082 2.428 2.428 0 0 1 1.447-.409 1.96 1.96 0 0 1 1.106.315 2.567 2.567 0 0 1 .772.8 3.438 3.438 0 0 1 .469 1.085 4.977 4.977 0 0 1 .148 1.173v8.3h3.176v-8.82a5.988 5.988 0 0 0-1.362-3.957" transform="translate(-124.249 -13.212)" style="fill:#222"/>
        <path data-name="패스 13" d="M31.839 16.074a15.92 15.92 0 1 0-31.839 0 16.1 16.1 0 0 0 3.715 10.321 3.275 3.275 0 0 0 2.047.9h8.656c.124 0 .075-.146.075-.146-5.084-5.519-4.815-11.075-4.815-11.075a6.242 6.242 0 1 1 6.241 6.3 6.15 6.15 0 0 1-.978-.08l-.031-.007h-.03c-.09-.011-.251 0-.251.2v8.694c.029.329.222.963 1.289.963a16 16 0 0 0 15.92-16.075" transform="translate(0 .072)" style="fill:#ea5750"/>
        <path data-name="패스 14" d="M142.074 32.49a4.418 4.418 0 0 1-.767 1.409 3.554 3.554 0 0 1-1.248.967 4.006 4.006 0 0 1-1.72.351 3.561 3.561 0 0 1-3.01-1.307 4.986 4.986 0 0 1-.99-3.1 5.833 5.833 0 0 1 .222-1.571 3.877 3.877 0 0 1 .728-1.413 3.54 3.54 0 0 1 1.231-1.034 3.932 3.932 0 0 1 1.819-.393 3.4 3.4 0 0 1 1.7.421 4.624 4.624 0 0 1 2.3 3.99 5.323 5.323 0 0 1-.265 1.684m2.864-4.257a6.507 6.507 0 0 0-1.247-2.274 5.741 5.741 0 0 0-2.043-1.584 6.618 6.618 0 0 0-2.844-.583 6.431 6.431 0 0 0-2.608.514 6.715 6.715 0 0 0-1.78 1.111 1.185 1.185 0 0 0-.293-.749 1.657 1.657 0 0 0-.746-.461 3.336 3.336 0 0 0-.955-.156 7.657 7.657 0 0 0-1.025.042l-.073.008v18.21h3.176V36.2a6.246 6.246 0 0 0 1.764 1.117 6.346 6.346 0 0 0 2.539.5 7.054 7.054 0 0 0 2.745-.514 5.6 5.6 0 0 0 2.055-1.458 6.118 6.118 0 0 0 1.305-2.18 8.188 8.188 0 0 0 .444-2.726 8.893 8.893 0 0 0-.415-2.71" transform="translate(-74.269 -13.383)" style="fill:#222"/>
    </g>
</svg>