<svg xmlns="http://www.w3.org/2000/svg" width="20" height="20" viewBox="0 0 20 20">
  <path id="패스_984" data-name="패스 984" d="M56.572,43.573a3.1,3.1,0,0,1,4.379,0l.809.809a3.1,3.1,0,0,1,0,4.379L49.855,60.667h6.812a1,1,0,1,1,0,2h-13a1,1,0,0,1-.981-1.2l.943-4.717a1,1,0,0,1,.273-.511Zm-1.584,4.413-9.456,9.456-.59,2.949,2.949-.59,9.456-9.456Zm3.774.945L56.4,46.572l1.584-1.584a1.1,1.1,0,0,1,1.551,0l.809.809a1.1,1.1,0,0,1,0,1.551Z" transform="translate(-42.667 -42.667)" fill="#a37d62" fill-rule="evenodd"/>
</svg>
